<?xml version="1.0" encoding="UTF-8" standalone="no"?>
<svg
   xmlns:dc="http://purl.org/dc/elements/1.1/"
   xmlns:cc="http://creativecommons.org/ns#"
   xmlns:rdf="http://www.w3.org/1999/02/22-rdf-syntax-ns#"
   xmlns:svg="http://www.w3.org/2000/svg"
   xmlns="http://www.w3.org/2000/svg"
   xmlns:sodipodi="http://sodipodi.sourceforge.net/DTD/sodipodi-0.dtd"
   xmlns:inkscape="http://www.inkscape.org/namespaces/inkscape"
   version="1.1"
   x="0px"
   y="0px"
   viewBox="0 0 1000 1000"
   enable-background="new 0 0 1000 1000"
   xml:space="preserve"
   id="svg898"
   sodipodi:docname="icon_creater_custom.svg"
   inkscape:version="0.92.5 (2060ec1f9f, 2020-04-08)"><defs
   id="defs902">
</defs><sodipodi:namedview
   pagecolor="#ffffff"
   bordercolor="#666666"
   borderopacity="1"
   objecttolerance="10"
   gridtolerance="10"
   guidetolerance="10"
   inkscape:pageopacity="0"
   inkscape:pageshadow="2"
   inkscape:window-width="1920"
   inkscape:window-height="1016"
   id="namedview900"
   showgrid="false"
   inkscape:zoom="0.944"
   inkscape:cx="163.08467"
   inkscape:cy="665.86009"
   inkscape:window-x="0"
   inkscape:window-y="27"
   inkscape:window-maximized="0"
   inkscape:current-layer="svg898"
   inkscape:document-rotation="0"><inkscape:grid
     type="xygrid"
     id="grid1447" /></sodipodi:namedview>
<metadata
   id="metadata888"> Svg Vector Icons : http://www.onlinewebfonts.com/icon <rdf:RDF><cc:Work
     rdf:about=""><dc:format>image/svg+xml</dc:format><dc:type
       rdf:resource="http://purl.org/dc/dcmitype/StillImage" /></cc:Work></rdf:RDF></metadata>
<g
   transform="matrix(0.95076298,0,0,0.92974266,-297.12795,606.41616)"
   id="g1602"
   style="fill:#000000;fill-opacity:1"><g
     id="g1600"
     style="fill:#000000;fill-opacity:1"
     transform="matrix(0.89615542,0,0,0.83010781,623.91599,-412.55637)"><g
       id="g1598"
       style="fill:#000000;fill-opacity:1"><path
         inkscape:connector-curvature="0"
         d="M 457.886,441.378 H 348.945 c 27.931,-11.07 49.196,-26.924 65.333,-46.151 64.353,-9.931 93.308,-63.409 93.308,-112.922 0,-34.948 -19.147,-63.965 -44.182,-69.57 0,-0.309 0.009,-0.618 0.009,-0.927 0.044,-4.661 -1.739,-9.057 -5.014,-12.367 -3.354,-3.372 -7.848,-5.235 -12.65,-5.235 l -88.232,-0.079 v 49.39 l 32.724,32.724 c 1.66,1.651 2.586,3.902 2.586,6.241 v 70.621 c 0,4.873 -3.946,8.828 -8.828,8.828 h -70.621 c -4.873,0 -8.828,-3.955 -8.828,-8.828 v -70.621 c 0,-2.339 0.936,-4.59 2.586,-6.241 l 32.724,-32.724 v -49.408 l -97.095,-0.079 h -0.018 l -202.964,0.177 c -4.82,0 -9.304,1.863 -12.659,5.235 -3.275,3.31 -5.067,7.706 -5.023,12.367 0.821,94.738 17.32,191.073 114.476,229.57 H 27.639 c -12.8,0 -23.225,10.337 -23.225,23.049 0,10.726 7.353,18.688 20.021,20.877 l 111.748,9.013 c 3.734,0.274 4.996,1.81 5.8,3.434 4.343,8.651 13.277,14.248 22.775,14.248 h 147.191 c 9.49,0 18.423,-5.588 22.74,-14.23 0.821,-1.642 2.092,-3.196 5.835,-3.452 l 120.514,-9.004 0.883,-0.106 c 11.829,-2.092 19.182,-10.055 19.182,-20.78 0,-12.713 -10.417,-23.05 -23.217,-23.05 z m -27.683,-68.749 c 2.454,-4.202 4.687,-8.545 6.806,-12.959 0.865,-1.801 1.73,-3.593 2.542,-5.42 1.668,-3.769 3.222,-7.601 4.679,-11.494 1.042,-2.763 2.004,-5.544 2.931,-8.351 0.424,-1.28 0.803,-2.586 1.209,-3.875 1.827,-5.862 3.46,-11.776 4.864,-17.743 0.018,-0.071 0.035,-0.141 0.053,-0.203 4.299,-18.308 6.824,-36.855 8.218,-54.837 0.027,-0.238 0.035,-0.468 0.062,-0.706 0.38,-4.988 0.706,-9.905 0.945,-14.769 0.168,-3.284 0.318,-6.559 0.441,-9.852 0.018,-0.486 0.053,-1.006 0.071,-1.501 15.245,5.826 26.906,26.995 26.906,51.385 0,34.489 -16.207,76.067 -60.178,91.18 0.169,-0.281 0.283,-0.573 0.451,-0.855 z m -231.698,34.913 c -0.733,4.308 -4.467,7.353 -8.704,7.353 -0.486,0 -0.98,-0.044 -1.483,-0.124 C 118.253,402.88 80.639,362.565 66.356,284.061 c -0.883,-4.793 2.304,-9.393 7.106,-10.266 4.785,-0.812 9.384,2.304 10.258,7.106 12.932,71.027 45.091,105.86 107.547,116.462 4.811,0.813 8.05,5.377 7.238,10.179 z"
         id="path1588"
         style="fill:#000000;fill-opacity:1" /><path
         inkscape:connector-curvature="0"
         d="m 227.636,73.058 c -13.303,12.685 -20.171,26.289 -20.392,40.448 -0.221,14.539 6.568,28.919 20.189,42.752 1.73,1.757 4.008,2.639 6.294,2.639 2.233,0 4.476,-0.847 6.197,-2.542 3.469,-3.425 3.513,-9.013 0.097,-12.482 -10.187,-10.337 -15.272,-20.462 -15.122,-30.084 0.15,-9.251 5.164,-18.662 14.848,-27.878 13.542,-12.615 20.498,-26.341 20.665,-40.819 0.185,-14.777 -6.718,-29.105 -20.515,-42.584 -3.496,-3.399 -9.075,-3.337 -12.491,0.15 -3.407,3.487 -3.337,9.075 0.15,12.482 10.205,9.966 15.325,19.977 15.201,29.74 -0.105,9.454 -5.163,18.918 -15.121,28.178 z"
         id="path1590"
         style="fill:#000000;fill-opacity:1" /><path
         inkscape:connector-curvature="0"
         d="m 333.567,73.058 c -13.303,12.685 -20.171,26.289 -20.392,40.448 -0.221,14.539 6.568,28.919 20.189,42.752 1.73,1.757 4.008,2.639 6.294,2.639 2.233,0 4.476,-0.847 6.197,-2.542 3.469,-3.425 3.513,-9.013 0.097,-12.482 -10.187,-10.337 -15.272,-20.462 -15.122,-30.084 0.15,-9.251 5.164,-18.662 14.848,-27.878 13.542,-12.615 20.498,-26.341 20.665,-40.819 0.185,-14.777 -6.718,-29.105 -20.515,-42.584 -3.487,-3.399 -9.066,-3.337 -12.491,0.15 -3.407,3.487 -3.337,9.075 0.15,12.482 10.205,9.966 15.325,19.977 15.201,29.74 -0.105,9.454 -5.163,18.918 -15.121,28.178 z"
         id="path1592"
         style="fill:#000000;fill-opacity:1" /><path
         inkscape:connector-curvature="0"
         d="m 139.153,73.058 c -13.303,12.685 -20.171,26.289 -20.392,40.448 -0.221,14.539 6.568,28.919 20.189,42.752 1.73,1.757 4.008,2.639 6.294,2.639 2.233,0 4.476,-0.847 6.197,-2.542 3.469,-3.425 3.513,-9.013 0.097,-12.482 -10.187,-10.337 -15.272,-20.462 -15.122,-30.084 0.15,-9.251 5.164,-18.662 14.848,-27.878 13.542,-12.615 20.498,-26.341 20.665,-40.819 0.185,-14.777 -6.718,-29.105 -20.515,-42.584 -3.496,-3.399 -9.066,-3.337 -12.491,0.15 -3.407,3.487 -3.337,9.075 0.15,12.482 10.205,9.966 15.325,19.977 15.201,29.74 -0.105,9.454 -5.163,18.918 -15.121,28.178 z"
         id="path1594"
         style="fill:#000000;fill-opacity:1" /><polygon
         points="348.693,259.652 322.21,286.134 322.21,344.273 375.175,344.273 375.175,286.134 "
         id="polygon1596"
         style="fill:#000000;fill-opacity:1" /></g></g></g><g
   id="g896"
   style="fill:#000000;fill-opacity:1"><g
     transform="translate(0.000000,511.000000) scale(0.100000,-0.100000)"
     id="g894"
     style="fill:#000000;fill-opacity:1"><path
       d="M4581.8,3430.1c-733.7-99.7-1411.2-447.4-1945.5-999.6c-444.8-457.6-726-979.1-866.6-1595.3l-40.9-179L1537,546.4c-311.9-179-700.5-444.8-905-621.2C-101.7-706.3-73.6-1312.2,698.5-1578c549.6-189.2,1577.4-179,2789.2,25.6C5420.3-1222.7,7652.1-417.4,8879.3,393c455.1,301.7,802.8,639.1,933.1,905c232.7,475.5-5.1,861.5-628.9,1020c-342.6,86.9-889.7,112.5-1406.1,66.5l-253.1-23l-196.8,186.6c-434.6,416.7-1004.7,713.3-1633.6,848.8C5463.8,3445.5,4834.9,3465.9,4581.8,3430.1z M5530.3,3010.9c613.6-107.4,1158.1-391.1,1595.2-830.9c393.7-393.7,692.8-943.4,792.5-1452.1c17.9-86.9,38.3-158.5,46-158.5c5.1,0,92.1,43.5,189.2,94.6c204.5,112.5,199.4,79.2,58.8,511.3c-86.9,258.2-194.3,493.4-311.9,680c-51.1,81.8-56.3,104.8-28.1,122.7c48.6,30.7,720.9,28.1,953.6-5.1c434.6-58.8,677.5-186.6,677.5-355.3c0-222.4-273.6-511.3-833.4-876.9C7117.8-276.8,4295.5-1163.9,2173.6-1301.9c-991.9-63.9-1669.4,86.9-1669.4,373.2c0,191.7,342.6,549.6,848.8,884.6l314.4,209.6l20.4-202c33.2-340,89.5-649.4,158.5-866.7l63.9-207.1l209.6,12.8c117.6,5.1,214.7,12.8,219.8,17.9c2.5,2.6-12.8,48.6-35.8,104.8c-23,53.7-69,196.8-102.3,317C1923,347,2211.9,1433.5,2958.4,2182.6C3635.9,2862.6,4599.7,3171.9,5530.3,3010.9z"
       id="path890"
       style="stroke:#0000ff;stroke-opacity:1;fill:#000000;fill-opacity:1" /><path
       d="M8155.8-256.3c-201.9-99.7-209.6-107.4-227.5-207.1c-30.7-199.4-145.7-516.4-271-764.4c-488.3-953.6-1421.4-1551.8-2490-1595.3c-815.5-35.8-1546.7,235.2-2150,795.1l-181.5,168.7l-225-25.6c-122.7-12.8-227.5-30.7-235.2-35.8c-28.1-30.7,605.9-626.3,800.2-754.2c368.1-240.3,769.5-406.5,1214.3-503.7c301.7-66.5,999.6-66.5,1298.7,0c1199,258.2,2144.9,1089.1,2520.7,2213.9c86.9,258.2,181.5,708.2,163.6,777.2C8368-161.7,8306.6-182.2,8155.8-256.3z"
       id="path892"
       style="fill:#000000;fill-opacity:1" /></g></g>
</svg>