<?xml version="1.0" standalone="no"?>
<!DOCTYPE svg PUBLIC "-//W3C//DTD SVG 20010904//EN"
 "http://www.w3.org/TR/2001/REC-SVG-20010904/DTD/svg10.dtd">
<svg version="1.0" xmlns="http://www.w3.org/2000/svg"
 width="700.000000pt" height="700.000000pt" viewBox="0 0 700.000000 700.000000"
 preserveAspectRatio="xMidYMid meet">
<metadata>
Created by potrace 1.11, written by Peter Selinger 2001-2013
</metadata>
<g transform="translate(0.000000,700.000000) scale(0.100000,-0.100000)"
fill="#000000" stroke="none">
<path d="M3275 5832 c-33 -3 -246 -38 -285 -46 -42 -9 -183 -53 -259 -80 -66
-24 -101 -38 -201 -84 -58 -27 -241 -133 -310 -180 -255 -175 -491 -416 -656
-667 -155 -237 -244 -445 -319 -745 -39 -155 -37 -152 -125 -199 -130 -69
-370 -225 -548 -358 -656 -491 -669 -972 -32 -1171 19 -6 47 -13 63 -16 15 -3
35 -7 45 -10 9 -3 34 -7 55 -10 87 -13 113 -18 137 -22 134 -23 632 -23 890 1
76 7 163 16 195 20 17 2 57 6 89 10 59 6 93 10 164 21 20 3 51 7 67 9 31 4 97
15 126 20 9 2 34 6 55 9 56 9 205 35 229 40 11 3 67 14 125 26 58 12 112 23
120 25 328 74 520 123 828 211 68 19 152 37 187 39 65 3 95 14 130 46 41 37
116 54 280 65 61 4 126 8 145 9 19 2 82 6 140 9 170 11 223 16 245 22 87 28
113 125 49 189 -17 18 -20 25 -10 25 12 0 306 122 461 192 76 34 512 252 525
263 8 7 47 29 85 50 141 77 371 232 510 344 103 83 265 247 318 322 205 290
175 552 -82 718 -105 67 -290 129 -441 147 -30 3 -57 8 -60 9 -29 17 -558 26
-705 12 -38 -4 -108 -9 -155 -12 l-85 -6 -80 76 c-119 113 -228 204 -336 279
-53 36 -99 66 -103 66 -3 0 -29 15 -58 33 -127 80 -462 218 -588 242 -12 2
-29 6 -38 9 -9 3 -32 8 -51 11 -19 3 -37 7 -40 9 -6 4 -84 13 -190 22 -74 6
-460 11 -506 6z m495 -287 c43 -5 132 -21 175 -29 239 -48 498 -157 715 -302
151 -100 183 -127 326 -269 263 -263 458 -603 538 -940 37 -155 46 -186 54
-183 67 30 191 99 214 121 28 25 30 31 24 73 -8 63 -100 329 -157 458 -27 61
-74 154 -105 208 -56 97 -62 127 -27 129 10 0 27 3 38 5 28 6 370 5 485 -1 82
-5 149 -14 285 -40 99 -19 225 -77 272 -126 112 -113 0 -306 -319 -552 -290
-225 -812 -513 -1288 -711 -74 -31 -155 -65 -180 -76 -141 -59 -535 -205 -506
-187 49 31 176 128 198 152 18 19 44 31 94 42 144 32 276 112 364 222 45 56
102 173 115 236 46 223 -29 418 -191 495 -46 21 -64 35 -64 49 0 11 -14 31
-31 45 l-31 26 -282 0 -282 0 1 -133 1 -133 49 -44 c27 -25 74 -68 104 -96
l55 -52 1 -198 c1 -110 -1 -206 -3 -215 -7 -30 -45 -35 -269 -34 -168 1 -225
4 -237 14 -14 12 -16 43 -16 223 l0 210 38 36 c21 20 69 64 105 97 l67 59 0
133 c0 126 -1 133 -20 133 -11 0 -130 1 -265 1 -135 0 -537 -1 -895 -1 l-650
0 -32 -29 c-32 -28 -32 -30 -32 -112 1 -85 12 -248 19 -284 2 -11 7 -38 9 -60
49 -371 240 -656 537 -798 49 -23 88 -44 89 -47 0 -3 -147 -5 -328 -5 -359 0
-371 -2 -409 -58 -27 -38 -29 -76 -8 -116 26 -52 63 -61 295 -77 52 -3 115 -7
140 -9 25 -2 88 -7 140 -11 52 -4 109 -8 125 -10 17 -1 42 -3 57 -3 25 -1 58
-23 58 -40 0 -9 -194 -51 -420 -91 -96 -17 -186 -33 -200 -36 -14 -2 -40 -6
-57 -9 -18 -3 -50 -8 -70 -11 -79 -12 -152 -21 -228 -30 -33 -3 -68 -8 -78
-10 -43 -8 -165 -18 -357 -31 -202 -13 -583 -7 -690 11 -14 3 -43 7 -65 11
-202 29 -364 106 -401 191 -46 109 97 300 399 533 113 87 395 277 401 270 2
-2 7 -31 10 -64 25 -240 38 -327 70 -492 6 -31 52 -198 73 -267 l18 -58 145 7
c88 4 148 11 152 18 3 6 1 22 -6 36 -27 53 -103 309 -120 406 -3 17 -8 40 -10
52 -14 70 -21 179 -21 338 0 201 2 223 41 438 3 16 12 46 19 68 8 21 12 39 10
39 -2 0 12 46 31 102 137 392 365 712 692 971 86 68 305 209 306 197 1 -3 15
4 31 16 17 11 57 31 90 44 33 13 65 26 70 30 32 22 320 106 400 116 22 3 46 7
54 10 8 2 46 7 85 11 39 3 73 7 75 9 6 5 342 -4 391 -11z m1153 -1419 c114
-129 82 -411 -64 -564 -60 -62 -170 -132 -210 -132 -4 0 9 33 31 73 81 151
128 336 145 577 9 115 9 116 43 95 15 -10 39 -32 55 -49z m-2373 -176 c11 -6
24 -35 35 -82 79 -328 266 -508 588 -568 59 -11 70 -16 78 -38 8 -21 6 -29
-10 -45 -18 -19 -25 -19 -88 -9 -270 45 -478 189 -585 404 -70 140 -113 303
-88 333 14 17 43 19 70 5z"/>
<path d="M2896 5418 c-17 -24 -12 -39 33 -87 60 -65 76 -131 46 -194 -8 -18
-48 -66 -88 -108 -83 -87 -106 -137 -102 -222 2 -39 11 -70 29 -102 61 -103
119 -144 157 -109 28 25 23 47 -17 90 -65 70 -82 141 -48 206 9 17 45 60 80
95 82 82 107 130 108 208 0 75 -26 136 -86 199 -50 52 -87 60 -112 24z"/>
<path d="M3427 5422 c-23 -26 -22 -32 18 -77 53 -60 77 -111 72 -154 -6 -52
-21 -77 -97 -156 -79 -83 -100 -119 -107 -190 -8 -75 19 -145 82 -212 54 -56
81 -65 108 -35 24 26 22 34 -19 83 -50 60 -67 98 -66 146 0 53 24 92 100 166
142 137 141 287 -3 420 -34 31 -65 35 -88 9z"/>
<path d="M4068 5429 c-29 -17 -21 -56 18 -97 59 -60 78 -125 54 -188 -6 -15
-43 -62 -83 -103 -86 -90 -110 -136 -113 -212 -3 -71 26 -138 88 -203 48 -49
75 -57 101 -28 24 27 21 39 -22 91 -51 62 -63 87 -63 132 1 54 25 95 102 171
135 133 141 273 18 402 -45 46 -68 54 -100 35z"/>
<path d="M4114 4004 c-16 -15 -50 -46 -75 -69 l-45 -43 0 -153 1 -154 158 -3
157 -3 0 160 0 160 -27 21 c-16 12 -49 42 -75 66 -26 24 -51 44 -56 44 -5 0
-22 -12 -38 -26z"/>
<path d="M5820 3293 c-41 -14 -218 -103 -236 -120 -18 -15 -42 -92 -61 -195
-9 -51 -102 -288 -153 -390 -326 -655 -964 -1088 -1675 -1135 -460 -31 -828
53 -1216 275 -94 53 -256 174 -358 268 -150 138 -129 125 -196 119 -33 -3 -71
-7 -85 -9 -14 -2 -52 -8 -85 -12 -33 -4 -63 -8 -67 -10 -5 -1 -13 -2 -18 -3
-7 0 -8 -7 -3 -15 16 -29 177 -189 344 -342 240 -220 532 -377 909 -488 177
-52 340 -70 620 -70 262 0 368 12 562 62 404 106 775 316 1068 604 85 83 103
104 191 208 42 51 159 215 159 224 0 2 17 33 38 67 141 233 277 642 299 897 6
75 4 79 -37 65z"/>
</g>
</svg>
