<?xml version="1.0" standalone="no"?>
<!DOCTYPE svg PUBLIC "-//W3C//DTD SVG 20010904//EN"
 "http://www.w3.org/TR/2001/REC-SVG-20010904/DTD/svg10.dtd">
<svg version="1.0" xmlns="http://www.w3.org/2000/svg"
 width="700.000000pt" height="700.000000pt" viewBox="0 0 700.000000 700.000000"
 preserveAspectRatio="xMidYMid meet">
<metadata>
Created by potrace 1.11, written by Peter Selinger 2001-2013
</metadata>
<g transform="translate(0.000000,700.000000) scale(0.100000,-0.100000)"
fill="#000000" stroke="none">
<path d="M357 6940 c-114 -20 -205 -91 -256 -199 l-26 -56 0 -3195 0 -3195 28
-57 c41 -83 121 -153 205 -178 67 -20 81 -20 3237 -18 l3170 3 57 27 c69 32
135 96 168 163 l25 50 0 3210 0 3210 -27 50 c-36 68 -101 128 -173 162 l-60
28 -3150 1 c-1732 1 -3172 -2 -3198 -6z m4070 -1282 c80 -30 162 -112 192
-193 18 -48 22 -76 19 -140 -5 -133 -68 -229 -186 -287 -60 -30 -75 -33 -152
-33 -103 1 -156 22 -230 91 -183 172 -122 480 112 564 73 27 172 26 245 -2z
m-3140 -9 c147 -56 240 -219 212 -373 -20 -114 -83 -196 -191 -253 -46 -24
-64 -27 -143 -27 -78 0 -98 3 -146 27 -115 56 -193 177 -193 302 -1 101 24
164 93 236 99 105 235 137 368 88z m1580 0 c148 -56 240 -220 212 -377 -20
-110 -84 -193 -191 -249 -46 -24 -64 -27 -143 -27 -107 0 -158 19 -231 86 -91
83 -130 211 -100 329 31 121 119 214 236 250 52 15 158 10 217 -12z m3158 -10
c66 -31 131 -97 163 -167 36 -76 38 -201 5 -274 -30 -66 -105 -143 -172 -175
-48 -24 -69 -28 -141 -28 -76 0 -92 3 -152 33 -118 58 -179 152 -186 287 -5
110 21 179 97 256 78 77 138 100 251 96 64 -3 97 -10 135 -28z m-3758 -1824
c60 -18 135 -80 166 -139 17 -32 22 -58 22 -121 0 -95 -19 -139 -88 -202 -80
-74 -74 -73 -727 -73 -668 0 -649 -2 -735 83 -123 124 -110 306 31 413 67 51
85 53 705 53 483 1 583 -1 626 -14z m1909 -12 c66 -35 101 -70 130 -130 66
-133 13 -291 -120 -361 l-51 -27 -620 0 -620 0 -53 29 c-92 51 -142 137 -142
241 0 94 46 182 117 226 77 48 81 48 718 46 597 -2 600 -2 641 -24z m1851 12
c60 -18 135 -80 166 -139 31 -58 31 -184 0 -241 -32 -62 -103 -121 -164 -139
-77 -23 -1179 -24 -1256 -1 -107 32 -193 147 -193 259 0 109 86 229 186 260
73 22 1186 23 1261 1z m-4722 -1725 c71 -32 127 -86 163 -155 24 -44 27 -61
27 -150 0 -86 -3 -107 -24 -150 -33 -67 -100 -131 -169 -163 -81 -37 -193 -38
-273 0 -79 36 -133 89 -171 166 -29 58 -33 76 -33 147 0 71 4 88 33 147 83
169 276 237 447 158z m2187 -50 c70 -20 130 -70 166 -140 31 -60 34 -71 30
-135 -7 -106 -57 -183 -152 -233 l-51 -27 -610 0 -610 0 -57 28 c-32 16 -73
46 -91 68 -36 42 -67 121 -67 173 0 116 87 232 200 267 39 12 1199 11 1242 -1z"/>
</g>
</svg>
